<?xml version="1.0" encoding="UTF-8"?>
<svg version="1.1" xmlns="http://www.w3.org/2000/svg" width="477" height="589">
<path d="M0 0 C0.80991898 0.00359528 1.61983795 0.00719055 2.45429993 0.01089478 C3.30300659 0.01074875 4.15171326 0.01060272 5.02613831 0.01045227 C7.84523532 0.01115168 10.66426712 0.01894539 13.48335266 0.02676392 C15.43248458 0.028628 17.38161696 0.03005195 19.33074951 0.03105164 C24.47151473 0.03487761 29.61225188 0.04470858 34.75300598 0.05575562 C39.99449789 0.06596802 45.23599431 0.07054889 50.47749329 0.07559204 C60.76982335 0.08633078 71.06213255 0.10340815 81.35444641 0.12442017 C82.61700947 2.31445953 83.87722516 4.50579673 85.13618469 6.69790649 C85.48848648 7.30846138 85.84078827 7.91901627 86.20376587 8.54807281 C89.81299942 14.84051905 93.03436543 21.29944072 96.22944641 27.81192017 C100.51529707 36.51976028 104.920362 45.14662061 109.45768738 53.72602844 C114.60054626 63.45993394 119.5976365 73.26782326 124.60444641 83.07217407 C125.85352404 85.51714595 127.10359082 87.96160743 128.35444641 90.40567017 C128.76943893 91.2165509 129.18443146 92.02743164 129.61199951 92.86288452 C132.01926284 97.55532968 134.45887341 102.22890316 136.92926025 106.88839722 C143.15453237 118.63024883 149.11788316 130.49906415 155.05244446 142.39004517 C156.81090426 145.91239439 158.57370454 149.43254861 160.33686829 152.95254517 C161.46668254 155.21283341 162.59624907 157.47324549 163.72554016 159.73379517 C164.24740402 160.77549866 164.76926788 161.81720215 165.3069458 162.89047241 C167.81072776 167.91420792 170.21679411 172.93369312 172.35444641 178.12442017 C173.85660157 171.49287189 175.2278694 164.84551246 176.52632141 158.17129517 C176.83108902 156.60915535 176.83108902 156.60915535 177.14201355 155.01545715 C179.59692326 142.3947094 181.99119916 129.7626241 184.35444641 117.12442017 C184.53439148 116.16614319 184.71433655 115.20786621 184.8997345 114.22055054 C193.51778534 69.51448122 193.51778534 69.51448122 180.35444641 27.12442017 C175.51692487 20.4340366 170.04704621 15.83444168 162.93257141 11.69473267 C160.18548418 10.02150681 157.74781427 8.27504431 155.35444641 6.12442017 C154.97944641 3.43692017 154.97944641 3.43692017 155.35444641 1.12442017 C156.35444641 0.12442017 156.35444641 0.12442017 158.33596134 0.00137234 C159.65089903 0.00275503 159.65089903 0.00275503 160.99240112 0.00416565 C161.99506012 0.00279099 162.99771912 0.00141632 164.03076172 0 C165.69447563 0.00539291 165.69447563 0.00539291 167.39179993 0.01089478 C168.55262085 0.01074875 169.71344177 0.01060272 170.90943909 0.01045227 C174.76742893 0.011152 178.62537119 0.01894718 182.48335266 0.02676392 C185.14993369 0.02862788 187.81651205 0.03010105 190.48309326 0.03105164 C196.79773521 0.03416469 203.11235992 0.04237773 209.42699426 0.05240113 C216.61430274 0.06356307 223.80161203 0.06907292 230.98892701 0.07409656 C245.7774423 0.08456036 260.56594406 0.1021593 275.35444641 0.12442017 C275.35444641 0.78442017 275.35444641 1.44442017 275.35444641 2.12442017 C274.53375671 2.37179932 274.53375671 2.37179932 273.69648743 2.62417603 C256.67268026 7.83068445 240.68174923 13.94855712 227.35444641 26.12442017 C226.67382141 26.71352173 225.99319641 27.30262329 225.29194641 27.90957642 C209.37616204 42.55085462 201.59342412 64.71182826 196.95991516 85.22988892 C196.74316132 86.18871475 196.52640747 87.14754059 196.30308533 88.13542175 C193.98367639 98.55926777 192.08137721 109.04676321 190.22944641 119.56192017 C189.84908435 121.69918676 189.46837697 123.83639193 189.08735657 125.97354126 C187.83345941 133.02215321 186.59247998 140.07300658 185.35444641 147.12442017 C185.0187262 149.03623077 185.0187262 149.03623077 184.67622375 150.98666382 C181.85579608 167.0538802 179.05272416 183.12410647 176.25697327 199.19563293 C174.48168082 209.39961467 172.69696941 219.6019233 170.9082489 229.80355835 C168.02688063 246.23869758 165.17654769 262.67899632 162.35444641 279.12442017 C161.36444641 279.45442017 160.37444641 279.78442017 159.35444641 280.12442017 C156.8565306 275.00775298 154.35978446 269.89051714 151.86408997 264.77276611 C150.98208771 262.96436018 150.09984454 261.15607173 149.21736145 259.34790039 C144.71132739 250.11413739 140.21462968 240.87886324 135.84687805 231.57876587 C121.97110187 202.07399596 105.47895052 173.74228476 89.2714386 145.47525024 C84.26999843 136.74925734 79.3363752 127.98700434 74.43232727 119.20596313 C70.06501431 111.38671308 65.66600638 103.58594623 61.2504425 95.79385376 C58.43236453 90.81630287 55.62982188 85.83078318 52.85054016 80.83145142 C45.58919918 67.77716511 38.11721013 54.88657215 30.35444641 42.12442017 C30.24225769 42.95850906 30.13006897 43.79259796 30.01448059 44.65196228 C26.70214488 69.05218225 22.65968498 93.28693419 18.34913635 117.52877808 C12.86429538 148.23844115 12.86429538 148.23844115 7.7462616 179.01067543 C7.43446417 180.9648902 7.11723504 182.918236 6.79975891 184.87153625 C3.38833043 206.70588629 3.81844672 227.27712444 16.68647766 246.06973267 C24.07567719 255.56708998 34.55169927 260.44034301 45.36079407 264.97940063 C49.90193428 266.90420982 53.66208474 268.75115148 57.35444641 272.12442017 C57.02444641 273.44442017 56.69444641 274.76442017 56.35444641 276.12442017 C53.03649463 276.86668621 49.97474611 277.24855765 46.57714844 277.24467468 C45.17850304 277.24673668 45.17850304 277.24673668 43.75160217 277.24884033 C42.74099731 277.24524506 41.73039246 277.24164978 40.68916321 277.23794556 C39.61554031 277.23809158 38.54191742 277.23823761 37.4357605 277.23838806 C33.89170807 277.23769213 30.34770839 277.2299146 26.80366516 277.22207642 C24.34458444 277.2202111 21.88550335 277.21878773 19.42642212 277.2177887 C12.95737175 277.21397244 6.48834386 277.20414972 0.01930237 277.19308472 C-6.58317256 277.18285146 -13.18565113 277.17828697 -19.78813171 277.17324829 C-32.74061526 277.16252668 -45.69308323 277.14565343 -58.64555359 277.12442017 C-56.91552877 273.27708089 -55.47094932 272.22191242 -51.64555359 270.37442017 C-28.54693046 258.32820211 -15.0527228 236.53836529 -7.05961609 212.50332642 C-3.91576822 202.35773222 -1.65913044 191.99190778 0.48725891 181.59707642 C0.63417868 180.88681368 0.78109844 180.17655094 0.93247032 179.44476509 C5.36679924 157.87179325 8.94178508 136.13959174 12.59907532 114.42453003 C13.36200936 109.90686823 14.13265 105.39053454 14.90329456 100.8741827 C15.65555714 96.46055434 16.40351687 92.0462051 17.15016747 87.63162422 C17.50179828 85.55495013 17.85457291 83.47846932 18.20861244 81.40220451 C25.06401227 49.27155633 25.06401227 49.27155633 16.29194641 18.93692017 C11.3507055 13.55340769 4.29282037 9.95252442 -2.27055359 6.93692017 C-5.64555359 5.12442017 -5.64555359 5.12442017 -6.41899109 3.07363892 C-6.49375671 2.43039673 -6.56852234 1.78715454 -6.64555359 1.12442017 C-4.8456696 -0.67546382 -2.39555483 0.00449012 0 0 Z " fill="#755EBF" transform="translate(138.6455535888672,171.87557983398438)"/>
</svg>
