<?xml version="1.0" encoding="utf-8" ?><svg xmlns="http://www.w3.org/2000/svg" xmlns:xlink="http://www.w3.org/1999/xlink" viewBox="125 200 1025 460"><path fill="#1A1B2E" d="M1024.72 277.645C1050.77 277.185 1075.43 276.602 1095.73 296.127C1108.61 308.519 1114.88 327.216 1114.74 344.907C1114.41 367.385 1108.42 389.487 1104.79 411.591C1103.41 419.992 1101.41 427.954 1101.44 436.559C1101.48 448.254 1107.42 457.672 1120.11 456.96C1128.9 456.466 1136.7 450.984 1143.86 446.272C1129.26 462.953 1111.63 478.94 1088.1 480.497C1056.81 482.567 1039.35 459.796 1044.77 429.526C1043.63 432.373 1042.41 435.648 1041.03 438.357C1026.92 466.085 991.766 490.332 960.454 477.236C950.422 473.111 942.472 465.122 938.395 455.07C921.807 414.145 961.219 382.607 995.057 370.683C1015.48 363.489 1035.81 358.109 1057.5 357.05C1061.14 335.327 1065.73 307.787 1053.82 287.724C1047.36 276.844 1031.39 279.529 1024.83 289.632C1012.22 309.065 1011.72 332.728 1007.41 354.757C993.73 354.924 976.553 354.112 966.206 344.118C953.588 331.93 961.754 310.418 972.572 299.986C983.148 289.786 997.694 284.981 1011.49 281.014C1003.17 279.359 983.123 286.524 975.925 291.277C969.48 295.461 964.179 301.186 960.499 307.932C955.573 316.925 954.059 326.418 950.747 335.949C938.161 372.172 917.158 405.058 898.782 438.527C891.394 451.983 884.294 465.564 876.278 478.603C875.282 480.202 874.064 481.673 872.147 481.702C864.662 471.586 839.174 380.247 833.206 362.156L796.485 434.756C793.263 441.242 775.526 479.649 771.204 481.551C769.893 481.15 768.802 480.93 768.285 479.247C765.673 470.746 762.88 461.523 760.262 453.081L739.274 386.588C730.419 358.376 722.106 327.443 706.665 302.135C697.503 287.12 685.434 282.67 669.137 279.604C681.331 284.829 695.598 290.839 700.683 304.18C707.668 322.508 696.736 345.852 689.612 362.583C685.822 371.524 681.965 380.438 678.04 389.321C669.368 408.424 660.459 427.419 651.314 446.3C641.494 466.876 633.067 483.249 621.755 503.171C603.706 534.957 581.297 560.567 540.601 543.755C527.001 538.137 508.471 520.17 515.15 503.743C518.886 495.18 531.503 488.026 539.989 485.563C544.516 484.124 549.112 483.478 553.097 486.003C570.224 496.86 573.647 521.605 600.71 513.436C610.944 510.346 617.88 503.37 624.008 494.383L590.413 409.971C577.35 377.006 565.461 344.228 546.508 314.033C532.753 292.118 516.745 283.162 491.672 279.686C511.915 287.484 526.826 296.538 536.025 317.532C542.425 332.139 541.327 346.904 541.359 362.425L541.492 408.143C541.676 426.817 541.158 460.184 570.014 447.235C571.799 446.422 573.558 445.551 575.286 444.624C565.646 460.281 551.788 475.545 533.231 479.549C504.895 485.662 488.716 469.549 485.336 442.928C476.261 459.713 466.1 473.333 446.556 478.676C415.591 487.142 382.242 471.436 373.821 439.413C361.413 392.234 404.419 372.843 441.469 362.823C457.702 358.432 469.061 358.724 485.575 357.56C485.697 337.251 487.063 315.393 480.1 295.969C477.5 288.716 470.961 279.781 462.232 280.527C439.815 282.442 437.327 314.348 438.163 331.737C438.562 339.64 439.344 349.384 440.823 357.171C427.411 354.85 399.631 348.87 391.545 337.557C380.887 322.646 401.897 299.829 413.755 292.249C428.945 282.538 444.752 278.28 462.473 278.113C479.822 279.065 505.401 278.327 523.442 278.325L643.522 278.309L643.762 278.771L643.713 278.84C626.046 279.131 610.018 284.995 610.538 305.943C610.782 315.813 614.903 325.653 617.398 335.108C626.603 368.262 641.884 400.904 652.515 433.21C670.073 397.546 693.852 360.035 679.155 319.193C673.446 303.328 662.74 284.684 645.842 279.184L646.309 278.407C652.587 277.81 664.287 278.16 670.907 278.186L713.338 278.231L855.218 278.239C861.775 278.238 903.009 277.743 905.265 278.57L905.379 279.159C889.582 283.984 875.67 293.506 877.691 312.063C879.178 325.717 883.925 338.502 887.181 351.777C893.029 374.352 898.558 397.135 905.106 419.493C911.077 407.812 917.161 396.189 923.358 384.625C936.034 360.865 952.282 333.614 943.592 305.663C939.773 293.382 928.56 281.725 915.761 278.976C921.368 275.766 1008.12 280.463 1024.72 277.645ZM806.588 407.758C813.673 391.619 823.183 372.461 831.46 356.882C824.849 332.893 816.48 296.887 794.272 280.689C793.864 280.391 792.752 279.947 792.234 279.766C771.064 297.645 772.401 304.26 778.806 330.005C783.482 348.799 788.995 367.457 794.152 386.145C796.607 395.31 800.379 407.869 801.799 417.088C803.337 414.162 805.257 410.728 806.588 407.758ZM438.931 447.499C456.764 460.758 475.307 449.163 485.688 432.814C485.686 424.749 486.039 360.198 485.012 358.631L483.349 358.739C463.484 365.711 444.85 375.727 435.237 395.735C428.226 410.328 426.108 435.461 438.931 447.499ZM999.344 445.681C1015.84 459.245 1037.03 440.606 1043.31 424.836C1051.56 404.102 1053.97 380.836 1057.36 358.81C1056.67 358.185 1057.03 358.322 1056.37 358.204C1042.37 361.354 1027.76 371.324 1016.54 380.033C1000.62 392.385 982.337 428.246 999.344 445.681Z"/><path fill="#7B63C8" d="M363.907 390.437C366.569 365.289 374.35 338.47 377.528 313.167C378.775 303.235 381.396 293.291 382.462 283.145C384.772 261.178 380.584 237.113 363.107 221.955C359.124 218.543 350.525 214.704 347.018 210.448C345.964 209.168 346.086 208.487 346.326 207.196C349.554 205.54 452.159 206.329 464.448 206.355C417.31 218.104 395.507 244.215 385.194 291.529C379.784 316.354 375.926 341.438 371.577 366.464L350.885 484.757C345.898 474.715 341.033 464.614 336.289 454.455C310.749 399.542 277.798 346.349 248.66 293.18C239.173 275.868 228.926 258.289 218.703 241.438C218.128 261.367 213.84 282.388 210.365 302.033L199.217 366.709C193.211 401.729 183.693 440.654 219.635 464.668C225.72 468.733 244.608 474.324 246.506 479.528L245.738 480.399C234.951 482.2 217.643 481.404 205.904 481.41L132.13 481.316C165.636 466.015 180.288 438.539 188.652 403.661C195.984 373.088 200.273 341.737 205.727 310.784C208.789 291.453 213.445 270.384 215.042 251.039C216.744 230.421 206.132 217.206 187.35 210.898C185.805 210.379 185.182 209.215 184.741 207.759L185.96 206.486C212.256 205.582 243.61 206.345 270.368 206.309C274.136 212.54 279.077 222.835 282.53 229.533L304.97 273.069C324.682 311.241 346.284 351.504 363.907 390.437Z"/><path fill="#312F3A" d="M693.924 565.081C696.296 565.182 698.284 564.993 700.244 566.198C701.102 571.597 701.121 625.726 699.359 627.73C697.153 628.138 696.839 628.192 694.647 627.764C692.877 624.841 694.704 624.541 693.523 621.973C689.709 622.823 686.766 627.123 682.207 628.427C675.973 630.21 670.14 628.092 664.61 625.291C664.106 624.918 663.608 624.537 663.116 624.148C658.201 620.258 654.974 614.911 654.312 608.63C653.655 602.41 655.564 596.191 659.598 591.412C663.45 586.853 668.966 584.026 674.915 583.559C683.239 582.894 687.922 586.154 693.768 591.179C693.672 582.298 693.598 573.97 693.924 565.081ZM680.339 622.219C689.218 620.646 695.108 612.131 693.448 603.267C691.789 594.403 683.218 588.596 674.372 590.343C665.648 592.065 659.939 600.494 661.575 609.236C663.212 617.978 671.583 623.77 680.339 622.219Z"/><path fill="#312F3A" d="M795.109 583.384C807.667 582.038 818.958 591.08 820.392 603.63C821.826 616.18 812.866 627.536 800.328 629.059C787.665 630.597 776.171 621.526 774.723 608.85C773.274 596.174 782.425 584.743 795.109 583.384ZM800.323 622.122C809.154 620.558 815.012 612.089 813.362 603.273C811.712 594.457 803.187 588.681 794.389 590.418C785.712 592.131 780.034 600.514 781.662 609.209C783.289 617.903 791.615 623.664 800.323 622.122Z"/><path fill="#312F3A" d="M477.723 569.037C486.55 569.302 490.282 570.639 498.212 574.57C497.365 576.417 496.266 578.507 495.35 580.351C487.685 577.047 480.444 574.269 472.459 576.779C470.566 577.374 467.211 578.186 466.01 579.876C458.481 590.342 475.277 594.304 482.516 596.267C497.311 600.279 506.795 609.021 495.037 623.347C490.981 628.288 483.11 628.868 477.076 629.129C466.799 628.59 463.29 626.589 455.092 621.074L458.251 615.48C466.538 620.589 480.67 627.276 489.817 618.534C490.919 617.48 492.749 613.796 492.152 612.307C487.945 601.813 471.096 603.431 463.251 596.336C460.469 594.1 457.178 590.526 457.099 586.609C456.843 573.954 467.691 569.8 477.723 569.037Z"/><path fill="#312F3A" d="M581.978 583.835C585.3 583.877 585.635 583.547 588.058 585.155C593.171 593.523 580.267 623.617 603.001 622.341C624.427 621.139 612.57 591.568 618.219 584.231C619.983 584.146 621.716 583.785 623.08 584.773C623.905 587.423 623.645 595.302 623.645 598.527C623.613 606.198 624.026 613.93 623.824 621.605C623.738 624.889 623.323 627.795 620.224 629.568C618.404 628.662 617.436 625.818 616.171 623.603C615.728 623.417 615.285 623.23 614.841 623.043C608.855 626.295 606.399 628.883 599.059 628.718C594.541 628.617 590.539 627.611 587.39 624.238C579.487 615.773 581.533 595.06 581.978 583.835Z"/><path fill="#312F3A" d="M533.706 573.074C536.848 573.46 536.726 573.161 538.746 574.844C539.884 577.168 539.458 581.237 539.389 584.017C542.621 584.042 547.892 583.398 548.641 587.289C546.375 590.307 542.901 589.806 539.356 589.972C538.963 598.622 538.239 607.947 539.513 616.544C540.968 626.359 547.631 619.424 553.351 623.272C553.954 625.378 554.026 624.591 553.458 626.552C526.756 637.043 531.122 606.016 532.373 589.815C529.567 589.607 526.558 589.785 524.994 587.105L525.478 585.785C527.272 584.097 529.463 584.163 531.917 583.922C531.853 579.906 531.355 576.367 533.706 573.074Z"/><path fill="#312F3A" fill-opacity="0.80000001" d="M462.473 278.113C467.445 277.01 501.561 277.639 508.61 277.659L612.537 277.576L883.593 277.554C929.658 277.553 978.941 276.69 1024.72 277.645C1008.12 280.463 921.368 275.766 915.761 278.976C912.182 278.7 908.945 278.959 905.379 279.159L905.265 278.57C903.009 277.743 861.775 278.238 855.218 278.239L713.338 278.231L670.907 278.186C664.287 278.16 652.587 277.81 646.309 278.407L645.842 279.184L643.713 278.84L643.762 278.771L643.522 278.309L523.442 278.325C505.401 278.327 479.822 279.065 462.473 278.113Z"/><path fill="#312F3A" d="M736.289 583.858C738.549 583.824 739.618 583.7 741.82 584.412C744.469 587.483 743.312 622.157 743.218 628.53C740.901 628.642 738.73 628.363 736.422 628.149C736.025 613.563 736.245 598.487 736.289 583.858Z"/><path fill="#312F3A" d="M739.479 564.093C742.079 563.915 744.343 565.852 744.57 568.448C744.798 571.045 742.905 573.346 740.313 573.622C738.593 573.806 736.907 573.046 735.906 571.635C734.904 570.223 734.743 568.381 735.484 566.817C736.225 565.253 737.753 564.212 739.479 564.093Z"/></svg>